<svg xmlns="http://www.w3.org/2000/svg" xmlns:svg="http://www.w3.org/2000/svg" id="svg33" width="210mm" height="297mm" version="1.1" viewBox="0 0 210 297"><metadata id="metadata30"/><g id="layer1"><path style="fill:#810404;stroke:none;stroke-width:1.24052" id="path49" d="M 95.02431,33.020387 C 19.980167,44.785332 -3.0218734,148.75593 83.152564,187.56524 c 14.110402,2.83675 23.377126,4.37743 34.428056,2.65343 9.52637,-1.48681 19.23116,-5.74109 27.30502,-11.39403 64.536,-45.18785 33.16953,-153.980996 -49.86133,-145.804253 m 42.73828,40.924823 c 1.14295,5.910002 2.49659,-3.799469 -17.54594,26.42323 3.99466,4.36592 5.84148,14.87917 4.77192,11.10256 0,0 -1.16498,11.05535 -5.76492,13.38898 0,0 -10.1914,7.19054 -17.91373,3.17497 l -1.759903,-0.91514 c 0,0 -13.444325,17.04606 -15.210278,19.41529 l 54.106571,0.26727 0.28227,4.93863 c 1.38509,-2.07987 -8.80609,1.46754 0,0 3.54116,-0.59014 -35.53476,0.0577 -35.53476,0.0577 8.11204,-0.33682 7.20855,-0.40563 2.28027,-0.49599 -7.572349,-0.13883 -15.275699,0.007 -22.386879,0.76894 -3.880316,0.4156 -6.450385,-0.1364 -9.860569,0.65841 1.267176,-1.66726 4.329954,-4.72078 5.416366,-6.14717 18.122983,-23.79423 11.293847,-14.30447 17.458887,-22.29028 0,0 -2.723903,-6.08149 -2.158026,-3.87979 2.056103,7.99985 -2.435334,-7.27023 -2.509469,-8.21668 0,0 0.328946,-3.44517 1.513683,-5.63515 1.184737,-2.18998 2.66019,-4.21122 6.067199,-6.788289 2.773668,-2.098002 8.496558,-2.972236 9.790898,-2.915269 l 5.73001,0.252194 c 0.9513,0.04187 11.38445,-10.096228 15.58783,-19.269939 l -51.126362,0.469858 -2.048232,0.01882 0.53454,-5.679428 c 18.566818,0.26727 42.755624,0.899909 60.545904,1.296239 M 106.5107,100.79474 c -16.600318,1.32501 -14.526569,26.66364 3.56152,24.61124 14.41504,-0.954 14.74328,-26.561502 -3.56152,-24.61124 m 0.31329,9.65691 c 3.46014,-1.21128 6.26238,4.63328 0.94595,5.29651 -3.63994,0.45409 -4.39148,-4.084 -0.94595,-5.29651 z"/></g></svg>