<?xml version="1.0" encoding="UTF-8" standalone="no"?>
<svg
   xmlns:dc="http://purl.org/dc/elements/1.1/"
   xmlns:cc="http://creativecommons.org/ns#"
   xmlns:rdf="http://www.w3.org/1999/02/22-rdf-syntax-ns#"
   xmlns:svg="http://www.w3.org/2000/svg"
   xmlns="http://www.w3.org/2000/svg"
   xmlns:sodipodi="http://sodipodi.sourceforge.net/DTD/sodipodi-0.dtd"
   xmlns:inkscape="http://www.inkscape.org/namespaces/inkscape"
   width="210mm"
   height="297mm"
   viewBox="0 0 210 297"
   version="1.1"
   id="svg33"
   inkscape:version="1.0 (4035a4fb49, 2020-05-01)"
   sodipodi:docname="zeicon.svg">
  <defs
     id="defs27" />
  <sodipodi:namedview
     id="base"
     pagecolor="#ffffff"
     bordercolor="#666666"
     borderopacity="1.0"
     inkscape:pageopacity="0.0"
     inkscape:pageshadow="2"
     inkscape:zoom="0.7"
     inkscape:cx="344.45368"
     inkscape:cy="445.94769"
     inkscape:document-units="mm"
     inkscape:current-layer="layer1"
     inkscape:document-rotation="0"
     showgrid="false"
     inkscape:window-width="1366"
     inkscape:window-height="745"
     inkscape:window-x="-8"
     inkscape:window-y="-8"
     inkscape:window-maximized="1" />
  <metadata
     id="metadata30">
    <rdf:RDF>
      <cc:Work
         rdf:about="">
        <dc:format>image/svg+xml</dc:format>
        <dc:type
           rdf:resource="http://purl.org/dc/dcmitype/StillImage" />
        <dc:title />
      </cc:Work>
    </rdf:RDF>
  </metadata>
  <g
     inkscape:label="Layer 1"
     inkscape:groupmode="layer"
     id="layer1">
    <path
       style="fill:#810404;stroke:none;stroke-width:1.24052"
       d="M 95.02431,33.020387 C 19.980167,44.785332 -3.0218734,148.75593 83.152564,187.56524 c 14.110402,2.83675 23.377126,4.37743 34.428056,2.65343 9.52637,-1.48681 19.23116,-5.74109 27.30502,-11.39403 64.536,-45.18785 33.16953,-153.980996 -49.86133,-145.804253 m 42.73828,40.924823 c 1.14295,5.910002 2.49659,-3.799469 -17.54594,26.42323 3.99466,4.36592 5.84148,14.87917 4.77192,11.10256 0,0 -1.16498,11.05535 -5.76492,13.38898 0,0 -10.1914,7.19054 -17.91373,3.17497 l -1.759903,-0.91514 c 0,0 -13.444325,17.04606 -15.210278,19.41529 l 54.106571,0.26727 0.28227,4.93863 c 1.38509,-2.07987 -8.80609,1.46754 0,0 3.54116,-0.59014 -35.53476,0.0577 -35.53476,0.0577 8.11204,-0.33682 7.20855,-0.40563 2.28027,-0.49599 -7.572349,-0.13883 -15.275699,0.007 -22.386879,0.76894 -3.880316,0.4156 -6.450385,-0.1364 -9.860569,0.65841 1.267176,-1.66726 4.329954,-4.72078 5.416366,-6.14717 18.122983,-23.79423 11.293847,-14.30447 17.458887,-22.29028 0,0 -2.723903,-6.08149 -2.158026,-3.87979 2.056103,7.99985 -2.435334,-7.27023 -2.509469,-8.21668 0,0 0.328946,-3.44517 1.513683,-5.63515 1.184737,-2.18998 2.66019,-4.21122 6.067199,-6.788289 2.773668,-2.098002 8.496558,-2.972236 9.790898,-2.915269 l 5.73001,0.252194 c 0.9513,0.04187 11.38445,-10.096228 15.58783,-19.269939 l -51.126362,0.469858 -2.048232,0.01882 0.53454,-5.679428 c 18.566818,0.26727 42.755624,0.899909 60.545904,1.296239 M 106.5107,100.79474 c -16.600318,1.32501 -14.526569,26.66364 3.56152,24.61124 14.41504,-0.954 14.74328,-26.561502 -3.56152,-24.61124 m 0.31329,9.65691 c 3.46014,-1.21128 6.26238,4.63328 0.94595,5.29651 -3.63994,0.45409 -4.39148,-4.084 -0.94595,-5.29651 z"
       id="path49"
       sodipodi:nodetypes="cccccccsssccccscsscsssczssscccccccccsc" />
  </g>
</svg>
